<?xml version="1.0" encoding="UTF-8"?>
<svg id="a" xmlns="http://www.w3.org/2000/svg" viewBox="0 0 1107.56 1141.33">
  <defs>
    <style>
      .b {
        stroke-width: 38px;
      }

      .b, .c {
        stroke: #000;
        stroke-miterlimit: 10;
      }

      .c {
        stroke-width: 35px;
      }
    </style>
  </defs>
  <path class="c" d="M916.72,1106.68c-31.58-26.51-60.34-59.03-90.02-88.13-6.81-6.91-14.27-13.89-23.74-16.65-87.08-7.62-175.75,3.18-263.01-4.18-26.5-4.4-46.32-21.27-52.46-48.78-7.88-69.77-.71-315.26-3.06-421.43-1.41-39.11,26.72-72.79,66.5-72.86,90.36-.92,328.94.34,402.08-.16,20.53-.27,45.6,6.55,58.32,22.85,7.39,8.58,12.38,20.66,14.34,33.08,4.03,141.08,1.29,282.74,1.37,423.94-2.25,30.84-21.58,55.08-51.81,63.68-10.26,3.45-14.55,13.31-13.96,23.5-2.26,33.81,14.19,109.32-44.54,85.14h0ZM927.65,1075.79c3.7.76,2.63-9,2.85-12.03.2-24.51-.53-49.6.42-72.04,3.12-41.85,61.07.69,65.45-62.26-.7-106.44,2.19-357.71-1.19-413.56-3.02-22.3-20.94-30.94-41.5-31.08-47.18.47-301.83-.47-397.46.08-27.79,1.17-40.61,16.76-40.72,43.92.3,42.3-.44,363.09.19,401.46.86,11.7,6.07,29,18.88,34.17,22.62,9.25,50.82,4.23,75.15,5.48,67.19,1.16,134.79-2.45,201.8,1.18,8.44,1.62,15.72,6.17,21.98,11.98,31.83,30.04,60.73,64.62,94.08,92.68l.07.02Z"/>
  <path class="c" d="M558.76,38.42c28.34,2.73,48.06,21.68,53.2,50.15,2.02,10.52,2.14,21.34,2.2,31.96.1,82.58.44,165.24-.14,247.81-.17,4.41-.55,8.84-1.54,12.85-3.86,17.47-21.22,19.04-27.59,2.81-2.14-6.69-1.09-13.74-1.33-20.99.13-65.42-.09-211.77,0-246.86.54-59.14-40.53-47.79-90.59-48.96-107.36.77-314.79-1.35-356.76.74-9,1.42-19.37,4.72-25.52,12.31-5.3,6.7-7.58,15.06-8.72,23.02-1.33,47.04-.38,369.01-.26,405.76,4.24,13.72,16.19,30.58,30.87,36.12,8.54,3.76,17.78,4.95,23.93,8.44,12.33,6.26,10.94,20.83,10.96,33.33.5,19.58-.97,47.13.61,65.27,1.55,7.19,9.67-2.51,12.88-5.01,27.42-25.71,53.21-53.55,80.08-80.12,4.76-4.55,9.89-8.96,15.77-11.85,5.61-2.82,11.94-4.21,19.03-4.69,37.76-.91,88.33.2,112.88.06,25.96,1.55,28.5,30.29-4.67,30.54-30.42.59-60.79-.47-91.19.25-5.64.22-11.4.82-16.72,2.56-6.81,2.14-12.8,6.23-18.09,11.04-23.79,22.88-46.79,46.66-70.33,69.97-13.72,14.34-33.75,31.74-54.12,19.8-16.79-10.42-16.14-27.57-16.22-47.48-.05-7.5-.02-15.29.02-22.78-.28-7.93.96-17.89-1.2-24.58-1.58-4.93-5.52-7.31-10.2-9.2-29.83-8.55-51.26-28.28-53.62-60.3-2.53-133.78.22-267.76-1.07-401.4.11-19.32,2.66-39.95,14.33-55.35,10.65-14.92,31.41-25.24,50.15-26.16,140.57-1.49,282.13,1.05,422.89.93h.06Z"/>
  <path class="b" d="M437.32,431.15c-2.28.7-6.1-1.85-9.65-4.58-1.36-1.09-2.36-5.25-2.63-7.15-3-21.84-16.37-25.39-36.58-24.56-37.12,1.63-74.23.82-111.63.27-7.37,0-10.65,2.19-13.11,9.29-5.45,15.83-11.74,31.39-17.73,46.67-4.37,11.19-12.01,15.56-21.01,12.01-8.73-3.55-11.74-12.01-7.37-23.2,34.39-90.06,68.51-180.14,102.9-269.94,4.64-11.74,11.46-17.19,21.57-16.93,10.92.27,17.46,6.55,21.01,16.37,29.75,79.43,59.78,158.57,89.79,238,5.18,13.11-1.09,23.74-15.56,23.74h0ZM404.02,364.29c-20.74-54.58-40.94-108.08-61.95-164.31-21.57,56.5-41.76,110-62.5,164.31h124.45Z"/>
  <path class="b" d="M718.4,666.22c-15.01-17.46-22.38-36.85-17.46-59.22,5.45-24.83,20.48-41.49,44.48-48.86,23.74-7.37,45.04-1.92,63.6,14.74,8.73,7.91,9.83,17.19,3.82,24.29-6.28,7.1-15.28,6.55-24.29-1.36-11.74-10.36-24.56-13.11-38.76-6.28-12.28,5.74-20.48,18.83-19.38,32.2,1.09,14.47,8.46,25.1,22.38,30.3,5.18,1.92,11.46,2.19,17.19,2.46,13.91.27,28.11,0,42.03.27,11.19.27,17.73,6.28,17.73,15.56-.27,8.73-6.55,14.74-17.19,15.01-15.01.54-30.02-.27-45.04.54-39.03,2.19-71.51,28.38-82.42,65.78-10.92,37.39,2.46,76.69,33.85,99.89,30.84,22.65,73.42,23.74,105.63,2.19,1.92-1.36,3.82-2.73,6.01-4.09,7.91-4.64,15.83-3.55,21.01,3,5.18,6.83,4.37,15.83-3.28,21.57-18.29,14.2-38.76,22.93-61.68,24.83-60.59,4.91-112.46-29.48-130.19-85.44-17.73-55.67,5.74-113.53,58.68-144.1.27-1.09,1.09-1.92,3.28-3.28h.02-.02Z"/>
</svg>